<?xml version="1.0" encoding="utf-8"?>
<!-- Generator: Adobe Illustrator 22.0.0, SVG Export Plug-In . SVG Version: 6.00 Build 0)  -->
<svg version="1.1" id="Layer_1" xmlns="http://www.w3.org/2000/svg" xmlns:xlink="http://www.w3.org/1999/xlink" x="0px" y="0px"
	 viewBox="0 0 1756 1361" style="enable-background:new 0 0 1756 1361;" xml:space="preserve">
<style type="text/css">
	.st0{fill:none;stroke:#00FF82;}
	.st1{opacity:0.9524;fill:none;stroke:#00FF82;}
	.st2{opacity:0.9048;fill:none;stroke:#00FF82;}
	.st3{opacity:0.8571;fill:none;stroke:#00FF82;}
	.st4{opacity:0.8095;fill:none;stroke:#00FF82;}
	.st5{opacity:0.7619;fill:none;stroke:#00FF82;}
	.st6{opacity:0.7143;fill:none;stroke:#00FF82;}
	.st7{opacity:0.6667;fill:none;stroke:#00FF82;}
	.st8{opacity:0.619;fill:none;stroke:#00FF82;}
	.st9{opacity:0.5714;fill:none;stroke:#00FF82;}
	.st10{opacity:0.5238;fill:none;stroke:#00FF82;}
	.st11{opacity:0.4762;fill:none;stroke:#00FF82;}
	.st12{opacity:0.4286;fill:none;stroke:#00FF82;}
	.st13{opacity:0.381;fill:none;stroke:#00FF82;}
	.st14{opacity:0.3333;fill:none;stroke:#00FF82;}
	.st15{opacity:0.2857;fill:none;stroke:#00FF82;}
	.st16{opacity:0.2381;fill:none;stroke:#00FF82;}
	.st17{opacity:0.1905;fill:none;stroke:#00FF82;}
	.st18{opacity:0.1429;fill:none;stroke:#00FF82;}
	.st19{opacity:9.523810e-02;fill:none;stroke:#00FF82;}
	.st20{opacity:4.761905e-02;fill:none;stroke:#00FF82;}
	.st21{opacity:0;fill:none;stroke:#00FF82;}
</style>
<g>
	<path class="st0" d="M-296,419.9c118-39.7,204.7-150.2,326-178c16.5-3.8,35.1-5.6,49.1,3.8c10.1,6.7,16,18,21.5,28.8
		c21,41.5,42,83,63.1,124.4c29.7,58.6,72.2,125.6,137.9,125.9c45.3,0.2,82.8-32.5,119.6-58.8s86.5-48.1,125.7-25.4
		c21.9,12.7,34.6,36.2,47.4,58.1c29,49.5,63.8,95.6,103.5,137c19.5,20.3,43.4,40.8,71.5,39.7c19.2-0.7,36.3-11.5,53-20.9
		c41.5-23.4,86.5-40.5,133.1-50.4c11.8-2.5,24.9-4.4,35.3,1.7c10,5.8,14.9,17.5,18.9,28.4c31.9,87.6,51.1,186.9,121.8,247.7
		c14,12,32,22.6,49.9,18.3c10.3-2.5,18.8-9.5,26.7-16.5c70.2-62.8,121.9-143.7,188.6-210.2s157.9-120.1,251-105.4
		c-90-71.6-176-148.2-257.5-229.3c-21.6-21.5-44.7-50.3-34.9-79.2c4.6-13.6,16-23.9,28.1-31.6c65-41,150.1-18.6,221.5,9.9
		s148.6,62.3,222.2,40.3"/>
	<path class="st1" d="M-293.1,428.5c116.9-39.6,203.2-147.8,322.4-177.7c16.2-4,34.3-6.2,48.2,2.3c9.9,6.1,15.9,16.5,21.4,26.5
		c21.3,38.2,42.6,76.4,63.9,114.7c30.1,54,72.4,116,136.9,114.6c44.5-0.9,81.6-33.2,118.1-59.2c36.5-26.1,84.8-46.5,124.3-26.7
		c23.1,11.6,38.9,32.8,53.3,55.2c0.9,1.4,1.8,2.7,2.6,4.1c11,17.1,21.4,34.8,32.9,51.7c11.4,16.8,24.5,33.1,38.1,46.4
		c12.6,12.2,24.7,22.2,38.4,34.4c3.8,3.4,7.6,7.1,11.5,10.7c12.7,11.8,26.5,23.1,39.9,30.1c6.7,3.5,13.3,5.7,20,6.2
		c9.2,0.7,17.4-1.8,25.4-5.6c6.3-3,12.4-6.7,18.5-10.1c6.8-3.8,13.9-7.1,21.4-10c15.6-5.9,33.8-10.1,53.2-13.8
		c18.1-3.5,37.3-6.4,56.5-8.5c12.6-1.4,26.3-2.2,37.4,4.7c7.3,4.6,12.3,11.9,16,20c1.7,3.6,3.1,7.3,4.5,11
		c8.4,23.3,14.9,47.6,22.2,71.7c8.4,27.8,18.3,56,31.6,79.8c14,25.4,29.6,45.6,47.1,63.1c10.1,10.2,21.2,19.3,34,27.5
		c9.2,5.9,20.2,11.3,32,13.3c6.9,1.2,14,1.2,21.1-0.6c11.1-2.8,20.9-9.6,29.6-16.7c13.3-10.9,25.3-23.2,37.1-35.7
		c13.7-14.6,26.6-29.9,39.2-45.4c34.2-42,66.8-85.7,104.5-124.6c63.5-65.5,150.4-118.6,239.5-106.7c-85.5-69.4-167-143.6-244.2-222
		c-20.5-20.8-42.3-48.5-32.9-76.3c4.5-13.1,15.3-23.1,27-30.5c62.3-39.8,143.8-19.1,212.3,7.3c68.5,26.4,142.6,58.1,213.3,36.5"/>
	<path class="st2" d="M-290.3,437.1c115.8-39.5,201.8-145.4,318.8-177.3c15.9-4.3,33.6-6.8,47.3,0.7c9.8,5.4,15.8,15,21.4,24.1
		c21.6,35,43.1,69.9,64.7,104.9c30.5,49.4,72.6,106.4,135.8,103.4c43.6-2.1,80.4-33.8,116.6-59.6c36.2-25.8,83.3-45,122.9-28
		c24.5,10.5,43.2,29.3,59.3,52.3c1,1.4,2,2.8,2.9,4.2c12.2,17.8,22.6,37,34.4,55.1c11.8,18,26.4,35.5,41.5,47.4
		c13.9,10.9,26.6,17.7,41.6,29.5c4.3,3.3,8.5,7.3,12.7,11.2c13.8,12.7,28.5,25.4,41,34.3c6.3,4.4,12.1,7.5,17.7,8.8
		c7.8,1.8,14.3,0.3,20.5-2.6c4.9-2.3,9.6-5.3,14.3-7.9c5.3-2.8,10.9-5.2,17.4-6.6c13.5-3.1,31.5-3.9,51.6-5.1
		c18.8-1.1,39.5-2.1,60.1-2.5c13.3-0.3,27.8-0.1,39.4,7.8c7.8,5.2,13.1,13.1,17.2,21.7c1.8,3.9,3.4,7.9,4.8,11.9
		c9.1,25.1,15.1,51.7,22.4,77.8c8.4,30.2,19.8,61.1,36,84.6c17.3,24.9,35.5,40.7,54,54c10.7,7.7,22.1,14.3,35.5,20.2
		c9.6,4.2,21.1,7.9,33.7,8.9c7.3,0.5,14.9,0.2,22.5-1.9c12-3.2,22.9-9.6,32.5-16.9c13.3-10.1,24.9-22.2,36.4-34.4
		c13.4-14.2,25.6-29.3,37.5-44.5c32.4-41.2,63.3-84.1,99.1-122.3c60.3-64.4,143-117.1,228-108c-80.9-67.2-158.1-138.9-230.9-214.6
		c-19.3-20.1-39.9-46.7-30.8-73.4c4.3-12.6,14.7-22.2,25.9-29.4c59.6-38.5,137.4-19.7,203,4.7c65.6,24.4,136.6,53.8,204.4,32.8"/>
	<path class="st3" d="M-287.4,445.7c114.8-39.4,200.4-143,315.2-176.9c15.5-4.6,32.9-7.5,46.3-0.8c9.7,4.8,15.7,13.5,21.4,21.7
		c21.8,31.7,43.6,63.4,65.5,95.1c30.9,44.8,72.8,96.8,134.8,92.2c42.8-3.3,79.2-34.5,115.1-60c35.9-25.5,81.9-43.7,121.5-29.3
		c26,9.4,47.5,25.9,65.3,49.4c1.1,1.4,2.2,2.9,3.2,4.4c13.3,18.4,23.7,39.1,36,58.5c12.2,19.2,28.3,37.9,44.9,48.3
		c15.3,9.6,28.4,13.1,44.9,24.6c4.8,3.3,9.4,7.5,14,11.6c14.8,13.6,30.4,27.7,42.1,38.5c5.9,5.4,10.8,9.4,15.4,11.5
		c6.4,2.9,11.1,2.4,15.6,0.4c3.5-1.6,6.7-3.8,10.1-5.6c3.7-1.9,8-3.1,13.5-3.3c11.4-0.2,29.2,2.2,50,3.6c19.6,1.3,41.7,2.2,63.6,3.5
		c14.1,0.8,29.2,2.1,41.5,10.8c8.2,5.8,14,14.2,18.4,23.4c2,4.2,3.7,8.5,5.2,12.7c9.7,27,15.2,55.8,22.5,83.9
		c8.4,32.6,21.2,66.3,40.5,89.3c20.4,24.4,41.3,35.9,60.9,44.9c11.3,5.2,23.1,9.3,37,12.8c10.1,2.5,22,4.6,35.4,4.5
		c7.7-0.1,15.8-0.9,24-3.2c12.8-3.6,24.9-9.7,35.4-17.1c13.2-9.4,24.5-21.2,35.7-33.1c13-13.9,24.5-28.7,35.8-43.7
		c30.6-40.5,59.8-82.4,93.7-120c57.1-63.4,135.5-115.6,216.5-109.3c-76.4-65-149.1-134.3-217.6-207.3
		c-18.2-19.3-37.5-44.9-28.7-70.6c4.2-12.1,14.1-21.4,24.7-28.3c56.9-37.3,131.1-20.2,193.8,2.2c62.7,22.4,130.6,49.6,195.5,29.1"/>
	<path class="st4" d="M-284.5,454.3c113.7-39.2,199-140.6,311.5-176.6c15.2-4.8,32.2-8.1,45.4-2.4c9.5,4.1,15.6,11.9,21.4,19.4
		c22.1,28.5,44.2,56.9,66.3,85.3c31.2,40.2,72.9,87.2,133.8,80.9c42-4.4,78-35.2,113.6-60.4c35.6-25.2,80.7-42.5,120.2-30.6
		c27.6,8.3,51.7,22.4,71.3,46.5c1.2,1.5,2.4,3,3.5,4.5c14.5,19.1,24.9,41.3,37.6,61.9c12.6,20.5,30.2,40.3,48.3,49.3
		c16.6,8.3,30.3,8.6,48.2,19.7c5.2,3.2,10.3,7.6,15.2,12.1c15.9,14.4,32.4,30.1,43.2,42.7c5.4,6.3,9.5,11.2,13.1,14.1
		c4.9,4,7.9,4.5,10.7,3.4c2.2-0.9,3.9-2.4,5.9-3.3c2.2-1,5.1-1.1,9.5,0.1c9.2,2.6,27,8.4,48.4,12.3c20.4,3.8,43.9,6.5,67.2,9.5
		c14.8,1.9,30.7,4.3,43.6,13.8c8.6,6.4,14.8,15.3,19.6,25.2c2.2,4.4,4,9,5.6,13.6c10.3,28.9,15.3,59.9,22.7,90.1
		c8.5,34.9,22.7,71.4,45,94.1c23.6,23.9,47.2,31,67.8,35.8c11.9,2.7,24.1,4.3,38.5,5.5c10.5,0.8,23,1.3,37.1,0.1
		c8.1-0.7,16.7-1.9,25.4-4.4c13.7-4,26.9-9.8,38.3-17.3c13.1-8.7,24.1-20.1,35-31.7c12.7-13.5,23.5-28.2,34.1-42.8
		c28.8-39.7,56.3-80.8,88.2-117.7c53.9-62.3,128-114.1,205-110.6c-71.9-62.8-140.2-129.6-204.3-199.9c-17-18.6-35.2-43.1-26.7-67.7
		c4-11.6,13.5-20.5,23.6-27.3c54.1-36.1,124.8-20.8,184.6-0.4c59.8,20.4,124.5,45.4,186.6,25.3"/>
	<path class="st5" d="M-281.7,462.9c112.6-39.1,197.6-138.2,307.9-176.2c14.9-5.1,31.4-8.8,44.5-3.9c9.4,3.5,15.5,10.4,21.4,17
		c22.4,25.2,44.7,50.3,67.1,75.5c31.6,35.5,73.1,77.6,132.7,69.7c41.2-5.6,76.7-35.9,112.1-60.8c35.3-24.9,79.6-41.5,118.8-31.9
		c29.2,7.2,56,18.9,77.3,43.6c1.3,1.5,2.6,3,3.8,4.6c15.7,19.7,26,43.5,39.1,65.3c13,21.7,32.2,42.7,51.7,50.3
		c18,7,32.2,4.1,51.5,14.8c5.7,3.2,11.2,7.8,16.4,12.5c17,15.3,34.3,32.4,44.3,46.9c5,7.3,8.3,13,10.8,16.7c3.5,5.1,4.7,6.6,5.8,6.3
		c0.7-0.2,1-1,1.7-1c0.7-0.1,2.1,0.8,5.5,3.4c7,5.4,24.7,14.6,46.8,21c21.2,6.2,46.1,10.8,70.8,15.5c15.5,3,32.1,6.4,45.7,16.9
		c9,7,15.7,16.4,20.8,26.9c2.3,4.7,4.3,9.6,6,14.5c11,30.8,15.4,63.9,22.8,96.2c8.5,37.3,24.1,76.6,49.5,98.9
		c26.7,23.5,53,26.2,74.7,26.7c12.5,0.3,25.1-0.7,40-1.9c11-0.9,23.9-2,38.9-4.3c8.6-1.3,17.6-2.9,26.9-5.7
		c14.5-4.4,28.8-9.8,41.2-17.6c12.9-8,23.7-19.1,34.2-30.4c12.3-13.1,22.5-27.6,32.5-41.9c27-38.9,52.8-79.1,82.8-115.5
		c50.6-61.3,120.6-112.7,193.5-111.9c-67.4-60.6-131.2-125-191-192.5c-15.8-17.9-32.8-41.3-24.6-64.8c3.8-11.1,12.8-19.6,22.5-26.2
		c51.4-34.9,118.5-21.3,175.3-3c56.9,18.4,118.5,41.1,177.7,21.6"/>
	<path class="st6" d="M-278.8,471.5c111.5-39,196.2-135.8,304.3-175.8c14.6-5.4,30.7-9.4,43.6-5.5c9.2,2.8,15.4,8.9,21.3,14.6
		c22.7,22,45.2,43.8,67.9,65.7c32,30.9,73.3,68.1,131.7,58.4c40.4-6.8,75.5-36.6,110.6-61.2c35-24.6,78.5-40.7,117.4-33.3
		c30.9,5.9,60.3,15.5,83.2,40.7c1.4,1.5,2.8,3.1,4.1,4.8c16.9,20.3,27.2,45.7,40.7,68.7c13.4,22.9,34.1,45.1,55.1,51.3
		c19.3,5.7,34-0.5,54.8,9.9c6.2,3.1,12.1,8,17.6,13c18,16.2,36.2,34.7,45.4,51.1c4.6,8.2,7,14.8,8.5,19.4c2,6.1,1.5,8.7,0.9,9.3
		c-0.6,0.6-1.8,0.5-2.4,1.2c-0.8,0.9-0.8,2.8,1.6,6.8c4.9,8.1,22.4,20.8,45.2,29.7c22,8.7,48.3,15.1,74.3,21.5
		c16.3,4.1,33.6,8.6,47.7,19.9c9.4,7.6,16.6,17.6,22,28.6c2.5,5,4.6,10.2,6.4,15.4c11.6,32.7,15.6,68,23,102.3
		c8.6,39.7,25.5,81.7,54,103.6c29.9,23,58.8,21.4,81.7,17.6c13.1-2.2,26.1-5.7,41.5-9.3c11.4-2.6,24.8-5.3,40.6-8.6
		c9-1.9,18.6-3.9,28.3-7c15.3-4.7,30.8-9.9,44.1-17.8c12.7-7.4,23.3-18.1,33.5-29c11.9-12.8,21.5-27,30.8-41
		c25.2-38.1,49.3-77.5,77.4-113.2c47.4-60.2,113.1-111.2,182-113.2c-62.9-58.4-122.2-120.3-177.7-185.2
		c-14.7-17.2-30.4-39.5-22.6-61.9c3.7-10.6,12.2-18.8,21.3-25.1c48.7-33.7,112.1-21.9,166.1-5.5c54,16.4,112.5,36.9,168.8,17.9"/>
	<path class="st7" d="M-276,480c110.4-38.8,194.8-133.4,300.7-175.5c14.3-5.7,30-10,42.7-7c9.1,2.2,15.3,7.4,21.3,12.3
		c22.9,18.7,45.8,37.3,68.7,56c32.4,26.3,73.5,58.5,130.7,47.2c39.6-7.9,74.3-37.3,109-61.6c34.7-24.3,77.6-40,116-34.6
		c32.7,4.6,64.6,12,89.2,37.8c1.5,1.6,3,3.2,4.4,4.9c18,21,28.3,47.9,42.2,72.1c13.8,24.1,36,47.5,58.5,52.3
		c20.6,4.4,35.9-5.1,58,4.9c6.7,3,13,8.2,18.9,13.4c19.1,17.1,38.2,37,46.5,55.4c4.2,9.2,5.7,16.6,6.2,22c0.6,7.2-1.6,10.8-4,12.3
		c-2,1.3-4.7,1.9-6.6,3.5c-2.3,1.8-3.7,4.8-2.4,10.2c2.7,10.9,20.2,27,43.6,38.4c22.8,11.2,50.5,19.3,77.9,27.6
		c17,5.1,35.1,10.7,49.8,23c9.8,8.2,17.4,18.7,23.2,30.3c2.6,5.3,4.8,10.8,6.8,16.2c12.3,34.5,15.7,72.1,23.1,108.5
		c8.6,42.1,27,86.9,58.4,108.4c33,22.5,64.7,16.6,88.6,8.5c13.7-4.7,27.1-10.8,43-16.6c11.9-4.4,25.7-8.6,42.3-13
		c9.4-2.5,19.5-5,29.8-8.2c16.2-5.1,32.7-10,47-18c12.4-6.9,22.9-17.1,32.8-27.7c11.6-12.4,20.5-26.4,29.1-40.1
		c23.4-37.3,45.7-75.8,72-110.9c44.2-59.2,105.6-109.7,170.4-114.5c-58.4-56.2-113.3-115.7-164.4-177.8
		c-13.5-16.5-28-37.7-20.5-59.1c3.5-10.1,11.6-17.9,20.2-24c46-32.5,105.8-22.5,156.9-8.1c51.1,14.3,106.5,32.7,159.9,14.2"/>
	<path class="st8" d="M-273.1,488.6c109.4-38.7,193.4-131,297.1-175.1c14-5.9,29.3-10.7,41.7-8.5c8.9,1.5,15.3,5.9,21.3,9.9
		c23.2,15.5,46.3,30.8,69.5,46.2c32.8,21.7,73.7,48.9,129.6,35.9c38.8-9.1,73.1-37.9,107.5-62c34.4-24,77-29.5,114.6-35.9
		c34.1-5.7,68.9,8.5,95.2,34.9c1.6,1.6,3.2,3.3,4.7,5c19.2,21.6,29.5,50,43.8,75.5c14.2,25.4,37.9,50,61.8,53.3
		c22,3.1,37.8-9.6,61.3,0c7.2,3,13.9,8.4,20.1,13.9c20.2,18,40.1,39.3,47.6,59.6c3.7,10.1,4.5,18.4,3.9,24.6
		c-0.8,8.3-4.8,12.9-8.9,15.2c-3.4,2-7.5,3.4-10.8,5.8c-3.9,2.8-6.7,6.8-6.4,13.5c0.6,13.7,17.9,33.2,41.9,47.1
		c23.5,13.7,52.7,23.6,81.4,33.6c17.8,6.2,36.5,12.9,51.9,26c10.3,8.7,18.3,19.8,24.4,32.1c2.8,5.6,5.1,11.3,7.2,17.1
		c12.9,36.4,15.8,76.2,23.3,114.6c8.7,44.4,28.4,92.1,62.9,113.1c36.2,22.1,70.5,11.8,95.5-0.6c14.3-7.1,28-15.9,44.5-24
		c12.3-6.1,26.6-11.9,44-17.4c9.9-3.1,20.4-6,31.2-9.5c17-5.5,34.6-10.2,49.9-18.2c12.2-6.3,22.5-16.1,32.1-26.4
		c11.2-12,19.4-25.8,27.4-39.3c21.6-36.5,42.2-74.2,66.5-108.7c41-58.1,98.1-108.2,158.9-115.8c-53.8-54-104.3-111.1-151.1-170.4
		c-12.4-15.7-25.6-36-18.4-56.2c3.4-9.6,11-17.1,19.1-22.9c43.3-31.3,99.5-23,147.7-10.7c48.2,12.3,100.5,28.4,151,10.4"/>
	<path class="st9" d="M-270.2,497.2c108.3-38.6,192-128.6,293.5-174.7c13.7-6.2,28.6-11.3,40.8-10.1c8.8,0.9,15.2,4.4,21.3,7.5
		c23.5,12.2,46.8,24.2,70.3,36.4c33.2,17.1,73.9,39.3,128.6,24.7c37.9-10.2,71.9-38.6,106-62.4c34.1-23.7,76.5-29.2,113.3-37.2
		c35.5-7.7,73.2,5.1,101.2,32c1.7,1.6,3.4,3.4,5,5.2c20.4,22.3,30.7,52.2,45.3,78.9c14.7,26.6,39.8,52.4,65.2,54.2
		c23.3,1.8,39.7-14.2,64.6-4.9c7.7,2.9,14.8,8.6,21.3,14.4c21.3,18.8,42.1,41.6,48.7,63.8c3.3,11,3.2,20.2,1.6,27.2
		c-2.2,9.3-8,15-13.8,18.2c-4.8,2.7-10.4,4.8-15,8c-5.4,3.7-9.6,8.8-10.3,16.9c-1.5,16.5,15.6,39.4,40.3,55.9
		c24.3,16.2,54.9,27.8,85,39.6c18.5,7.2,38,15,54,29c10.7,9.3,19.1,20.9,25.6,33.8c2.9,5.9,5.4,11.9,7.6,18
		c13.5,38.3,15.9,80.3,23.5,120.7c8.7,46.8,29.8,97.2,67.4,117.9c39.3,21.6,76.4,7.1,102.4-9.7c14.8-9.6,29-20.9,46-31.4
		c12.8-7.8,27.6-15.2,45.7-21.8c10.3-3.7,21.3-7,32.7-10.7c17.9-5.9,36.4-10.3,52.8-18.4c11.9-5.8,22.1-15,31.4-25
		c10.9-11.6,18.4-25.2,25.7-38.4c19.8-35.7,38.7-72.5,61.1-106.4c37.7-57.1,90.7-106.8,147.4-117.1
		c-49.3-51.8-95.4-106.4-137.8-163.1c-11.2-15-23.2-34.2-16.4-53.3c3.2-9,10.3-16.2,17.9-21.8c40.6-30,93.1-23.6,138.4-13.2
		c45.3,10.3,94.5,24.2,142.1,6.7"/>
	<path class="st10" d="M-267.4,505.8c107.2-38.5,190.6-126.2,289.8-174.4c13.4-6.5,27.8-11.9,39.9-11.6c8.6,0.2,15.1,2.8,21.3,5.2
		c23.8,9,47.4,17.7,71.1,26.6c33.6,12.5,74,29.7,127.6,13.5c37.1-11.4,70.7-39.3,104.5-62.8c33.8-23.5,76-29.2,111.9-38.5
		c36.9-9.6,77.5,1.6,107.2,29.1c1.8,1.7,3.6,3.4,5.3,5.3c21.6,22.9,31.8,54.4,46.9,82.3c15.1,27.8,41.7,54.8,68.6,55.2
		c24.7,0.5,41.6-18.8,67.9-9.8c8.2,2.8,15.7,8.7,22.5,14.8c22.3,19.7,44,44,49.8,68c2.9,12,2,22-0.7,29.9
		c-3.6,10.4-11.2,17.1-18.7,21.2c-6.2,3.4-13.2,6.3-19.2,10.3c-6.9,4.6-12.5,10.8-14.3,20.2c-3.7,19.3,13.3,45.6,38.7,64.6
		c25.1,18.7,57.1,32.1,88.6,45.6c19.3,8.3,39.4,17.2,56.1,32.1c11.1,9.9,20,22,26.8,35.5c3.1,6.1,5.7,12.5,8,18.9
		c14.2,40.2,16,84.4,23.6,126.9c8.7,49.2,31.2,102.4,71.9,122.6c42.4,21.2,82.2,2.3,109.3-18.8c15.4-12,30-26,47.5-38.7
		c13.2-9.6,28.5-18.5,47.5-26.2c10.7-4.3,22.2-8,34.1-12c18.7-6.2,38.3-10.5,55.7-18.6c11.6-5.4,21.7-14,30.7-23.7
		c10.5-11.3,17.4-24.6,24-37.5c18-35,35.2-70.9,55.7-104.1c34.5-56,83.2-105.3,135.9-118.4c-44.8-49.6-86.4-101.8-124.5-155.7
		c-10.1-14.3-20.9-32.4-14.3-50.4c3.1-8.5,9.7-15.3,16.8-20.7c37.9-28.8,86.8-24.1,129.2-15.8c42.4,8.3,88.4,20,133.2,3"/>
	<path class="st11" d="M-264.5,514.4c106.1-38.3,189.2-123.8,286.2-174c13.1-6.7,27.1-12.6,39-13.2c8.5-0.4,15,1.3,21.3,2.8
		c24,5.7,47.9,11.2,71.9,16.8c33.9,7.9,74.2,20.1,126.5,2.2c36.3-12.6,69.5-40,103-63.2c33.5-23.2,75.4-29.4,110.5-39.8
		c38.3-11.3,81.8-1.9,113.1,26.2c1.9,1.7,3.8,3.5,5.6,5.4c22.7,23.5,33,56.6,48.5,85.7c15.5,29,43.6,57.2,72,56.2
		c26-0.9,43.5-23.4,71.2-14.7c8.8,2.8,16.5,8.9,23.8,15.3c23.4,20.6,46,46.3,50.9,72.2c2.5,12.9,0.8,23.8-3.1,32.5
		c-5,11.5-14.4,19.1-23.6,24.2c-7.6,4.1-16.1,7.7-23.4,12.6c-8.5,5.6-15.4,12.8-18.3,23.6c-5.7,22.1,11,51.9,37.1,73.3
		c25.8,21.2,59.3,36.3,92.1,51.6c20.1,9.4,40.9,19.4,58.1,35.1c11.5,10.5,20.8,23.2,28,37.3c3.2,6.4,6,13,8.3,19.7
		c14.8,42,16.2,88.5,23.8,133c8.8,51.5,32.7,107.6,76.4,127.4c45.6,20.7,88.1-2.5,116.3-27.9c16-14.5,30.9-31.1,49-46.1
		c13.6-11.3,29.4-21.8,49.2-30.5c11.1-4.9,23.1-9.1,35.6-13.3c19.5-6.6,40.2-10.7,58.6-18.8c11.3-4.9,21.3-13,30-22.3
		c10.1-10.9,16.4-24,22.3-36.6c16.2-34.2,31.7-69.2,50.3-101.9c31.3-55,75.7-103.8,124.4-119.7c-40.3-47.4-77.5-97.1-111.2-148.4
		c-8.9-13.6-18.5-30.6-12.3-47.6c2.9-8,9.1-14.5,15.7-19.6c35.1-27.6,80.5-24.7,120-18.4c39.5,6.3,82.4,15.7,124.4-0.8"/>
	<path class="st12" d="M-261.6,523C-156.6,484.7-73.9,401.6,21,349.3c12.8-7,26.4-13.2,38.1-14.7c8.3-1.1,14.9-0.2,21.2,0.4
		c24.3,2.5,48.4,4.7,72.7,7.1c34.3,3.3,74.4,10.5,125.5-9c35.5-13.7,68.2-40.7,101.5-63.6c33.3-22.9,74.6-29.9,109.1-41.1
		c39.7-13,86.1-5.3,119.1,23.3c2,1.8,4,3.6,5.9,5.6c23.9,24.2,34.1,58.8,50,89.1c15.9,30.3,45.5,59.6,75.4,57.2
		c27.4-2.2,45.4-28,74.4-19.6c9.3,2.7,17.4,9.1,25,15.7c24.5,21.5,47.9,48.6,52,76.4c2,13.9-0.5,25.6-5.4,35.1
		c-6.4,12.6-17.6,21.2-28.5,27.1c-9,4.9-18.9,9.2-27.6,14.8c-10,6.5-18.3,14.7-22.2,26.9c-7.9,24.8,8.7,58.1,35.5,82
		c26.6,23.7,61.5,40.5,95.7,57.6c20.8,10.4,42.3,21.5,60.2,38.1c11.9,11.1,21.7,24.3,29.2,39c3.4,6.7,6.3,13.6,8.7,20.6
		c15.5,43.9,16.3,92.6,23.9,139.1c8.8,53.9,34.1,112.7,80.8,132.2c48.7,20.3,93.9-7.3,123.2-37c16.6-16.9,31.9-36.2,50.5-53.5
		c14.1-13.1,30.3-25.1,50.9-34.9c11.6-5.5,24.1-10.1,37-14.5c20.4-7,42-11,61.5-19c11-4.5,20.9-12,29.2-21
		c9.8-10.5,15.4-23.4,20.7-35.7c14.4-33.4,28.2-67.6,44.8-99.6c28.1-53.9,68.3-102.3,112.9-121c-35.8-45.2-68.5-92.5-97.8-141
		c-7.8-12.9-16.1-28.8-10.2-44.7c2.8-7.5,8.5-13.6,14.5-18.6c32.4-26.4,74.1-25.2,110.7-20.9c36.6,4.3,76.4,11.5,115.5-4.5"/>
	<path class="st13" d="M-258.8,531.6c104-38.1,186.4-119,279-173.3c12.5-7.3,25.7-13.9,37.1-16.3c8.2-1.7,14.8-1.7,21.2-1.9
		c24.6-0.8,48.9-1.8,73.5-2.7c34.7-1.3,74.6,0.9,124.5-20.3c34.7-14.9,67-41.4,100-63.9c33-22.6,72-38.1,107.7-42.4
		c43.4-5.3,90.4-8.8,125.1,20.4c2.1,1.8,4.2,3.7,6.2,5.7c25.1,24.8,35.3,60.9,51.6,92.5c16.3,31.5,47.5,62,78.8,58.2
		c28.7-3.5,47.3-32.6,77.7-24.5c9.8,2.6,18.3,9.3,26.2,16.2c25.5,22.3,49.9,50.9,53.1,80.6c1.6,14.8-1.7,27.4-7.7,37.7
		c-7.9,13.7-20.7,23.3-33.4,30.1c-10.4,5.6-21.8,10.6-31.8,17.1c-11.5,7.4-21.3,16.7-26.2,30.3c-10,27.6,6.4,64.3,33.9,90.7
		c27.3,26.2,63.7,44.8,99.2,63.6c21.6,11.5,43.8,23.7,62.3,41.2c12.3,11.7,22.6,25.4,30.4,40.7c3.6,7,6.6,14.2,9.1,21.5
		c16.1,45.8,16.4,96.7,24.1,145.3c8.9,56.3,35.5,118,85.3,136.9c51.8,19.9,99.9-12,130.1-46.1c17.3-19.4,32.9-41.2,52-60.8
		c14.5-14.8,31.3-28.4,52.6-39.3c12-6.1,25-11.1,38.4-15.8c21.2-7.4,43.8-11.3,64.4-19.2c10.7-4.1,20.5-10.9,28.5-19.7
		c9.4-10.2,14.3-22.8,19-34.8c12.6-32.6,24.7-65.9,39.4-97.3c24.9-52.9,60.8-100.8,101.4-122.3c-31.3-43-59.6-87.8-84.5-133.6
		c-6.6-12.1-13.7-27-8.1-41.8c2.6-7,7.8-12.8,13.4-17.5c29.7-25.2,67.8-25.8,101.5-23.5c33.7,2.3,70.4,7.3,106.6-8.2"/>
	<path class="st14" d="M-255.9,540.1c102.9-38,185-116.6,275.4-172.9c12.2-7.5,25-14.5,36.2-17.8c8.1-2.4,14.7-3.2,21.2-4.3
		c24.8-4,49.5-8.4,74.3-12.5c35.1-5.9,74.8-8.6,123.4-31.5c33.9-16,65.8-42,98.5-64.3c32.7-22.3,71-38,106.3-43.8
		c45.1-7.3,94.7-12.2,131.1,17.5c2.2,1.8,4.4,3.8,6.5,5.8c26.3,25.5,36.4,63.1,53.1,95.9c16.7,32.7,49.4,64.4,82.1,59.1
		c30.1-4.8,49.2-37.2,81-29.5c10.3,2.5,19.2,9.5,27.4,16.6c26.6,23.2,51.8,53.2,54.2,84.8c1.2,15.8-3,29.2-10,40.4
		c-9.3,14.7-23.9,25.4-38.3,33.1c-11.8,6.3-24.6,12.1-36,19.4c-13,8.4-24.2,18.7-30.2,33.6c-12.2,30.4,4.1,70.6,32.3,99.4
		c28,28.7,65.9,49,102.8,69.7c22.3,12.5,45.3,25.8,64.4,44.2c12.8,12.3,23.4,26.5,31.5,42.5c3.7,7.3,6.8,14.8,9.5,22.4
		c16.7,47.7,16.5,100.8,24.2,151.4c8.9,58.7,36.9,123.2,89.8,141.7c55,19.5,105.7-16.8,137-55.2c17.9-21.8,33.8-46.3,53.5-68.2
		c14.9-16.5,32.2-31.7,54.3-43.7c12.4-6.7,25.9-12.1,39.9-17.1c22.1-7.8,45.6-11.7,67.3-19.4c10.3-3.7,20-9.9,27.8-18.3
		c9.1-9.8,13.3-22.2,17.3-34c10.8-31.8,21.2-64.3,34-95c21.6-51.9,53.3-99.4,89.9-123.6c-26.8-40.8-50.6-83.2-71.2-126.3
		c-5.5-11.4-11.3-25.2-6.1-39c2.5-6.5,7.2-11.9,12.3-16.4c27-24,61.5-26.4,92.3-26.1c30.8,0.3,64.4,3.1,97.7-11.9"/>
	<path class="st15" d="M-253.1,548.7c101.8-37.8,183.5-114.2,271.8-172.5c11.8-7.8,24.2-15.1,35.3-19.4c7.9-3,14.6-4.8,21.2-6.7
		c25.1-7.3,50-14.9,75.1-22.3c35.5-10.6,74.9-18.2,122.4-42.8c33.1-17.2,64.6-42.7,97-64.7c32.4-22,69.9-38,105-45.1
		c46.7-9.5,99-15.7,137.1,14.6c2.3,1.9,4.6,3.8,6.8,6c27.4,26.1,37.6,65.3,54.7,99.3c17.1,33.9,51.3,66.8,85.5,60.1
		c31.4-6.1,51.1-41.8,84.3-34.4c10.8,2.4,20.1,9.7,28.7,17.1c27.7,24.1,53.8,55.5,55.3,89c0.8,16.7-4.2,31-12.3,43
		c-10.6,15.8-27.1,27.5-43.2,36c-13.2,7-27.4,13.5-40.2,21.7c-14.6,9.3-27.1,20.7-34.1,37c-14.3,33.2,1.8,76.8,30.7,108.1
		c28.8,31.2,68.2,53.2,106.4,75.7c23.1,13.6,46.7,28,66.4,47.3c13.2,12.9,24.3,27.6,32.7,44.2c3.9,7.6,7.1,15.3,9.9,23.2
		c17.4,49.5,16.7,104.8,24.4,157.5c9,61,38.4,128.3,94.3,146.4c58.1,19,111.6-21.6,143.9-64.3c18.5-24.3,34.8-51.4,55-75.6
		c15.3-18.3,33.1-34.9,56-48c12.9-7.3,26.8-13.2,41.3-18.3c22.9-8.1,47.4-12.1,70.2-19.6c10-3.3,19.6-8.9,27.1-17
		c8.7-9.4,12.3-21.6,15.6-33.1c9-31,17.6-62.6,28.6-92.8c18.4-50.8,45.9-97.9,78.4-124.9c-22.2-38.6-41.7-78.5-57.9-118.9
		c-4.3-10.7-8.9-23.4-4-36.1c2.3-6,6.6-11,11.1-15.3c24.3-22.8,55.2-26.9,83-28.6c27.9-1.7,58.4-1.2,88.8-15.7"/>
	<path class="st16" d="M-250.2,557.3c100.7-37.7,182.1-111.8,268.1-172.2c11.5-8.1,23.5-15.8,34.4-20.9c7.8-3.7,14.5-6.3,21.2-9
		c25.4-10.5,50.5-21.4,75.9-32.1c35.9-15.2,75.1-27.8,121.4-54c32.2-18.4,63.4-43.4,95.5-65.1c32.1-21.7,68.8-38,103.6-46.4
		c48.3-11.7,103.3-19.2,143,11.7c2.4,1.9,4.8,3.9,7.1,6.1c28.6,26.7,38.7,67.5,56.2,102.7c17.5,35.2,53.2,69.2,88.9,61.1
		c32.8-7.4,53-46.5,87.6-39.3c11.3,2.3,21,9.9,29.9,17.6c28.8,25,55.7,57.9,56.4,93.3c0.4,17.7-5.5,32.8-14.6,45.6
		c-12.1,16.9-30.3,29.6-48.1,39c-14.6,7.7-30.3,15-44.4,23.9c-16.1,10.2-30.1,22.7-38.1,40.3c-16.4,36-0.5,83,29.1,116.8
		c29.5,33.7,70.4,57.5,109.9,81.7c23.9,14.6,48.2,30.1,68.5,50.3c13.6,13.5,25.1,28.8,33.9,45.9c4,7.8,7.4,15.9,10.3,24.1
		c18,51.4,16.8,108.9,24.6,163.7c9,63.4,39.8,133.5,98.8,151.2c61.3,18.5,117.4-26.4,150.8-73.4c19.1-26.7,35.7-56.4,56.5-82.9
		c15.8-20,34.1-38.2,57.8-52.4c13.3-7.9,27.7-14.2,42.8-19.6c23.8-8.5,49.2-12.6,73.1-19.8c9.7-2.9,19.2-7.9,26.4-15.6
		c8.3-9.1,11.3-21.1,13.9-32.2c7.2-30.2,14.1-61,23.1-90.5c15.2-49.8,38.4-96.4,66.9-126.2c-17.7-36.4-32.7-73.9-44.6-111.5
		c-3.2-10-6.5-21.6-2-33.2c2.2-5.5,6-10.2,10-14.2c21.6-21.5,48.8-27.5,73.8-31.2c25-3.7,52.3-5.4,79.9-19.4"/>
	<path class="st17" d="M-247.3,565.9c99.7-37.6,180.7-109.3,264.5-171.8c11.2-8.3,22.8-16.4,33.4-22.5c7.6-4.3,14.4-7.8,21.1-11.4
		c25.7-13.8,51.1-27.9,76.7-41.9c36.3-19.8,75.3-37.4,120.3-65.3c31.4-19.5,62.2-44.1,93.9-65.5c31.8-21.4,67.7-38,102.2-47.7
		c49.9-14,107.5-22.6,149,8.8c2.5,1.9,5,4,7.4,6.2c29.8,27.4,39.9,69.6,57.8,106.1c17.9,36.4,55.1,71.6,92.3,62.1
		c34.1-8.7,54.9-51.1,90.8-44.2c11.8,2.3,21.9,10,31.1,18c29.8,25.8,57.7,60.2,57.5,97.5c-0.1,18.6-6.7,34.6-16.9,48.2
		c-13.5,18-33.5,31.7-53,42c-16,8.4-33.1,16.4-48.6,26.2c-17.6,11.2-33,24.7-42.1,43.7c-18.6,38.8-2.8,89.3,27.5,125.5
		c30.3,36.2,72.6,61.7,113.5,87.7C956,783.3,981,799.9,1002,821c14,14,26,29.9,35.1,47.7c4.2,8.1,7.7,16.5,10.7,25
		c18.7,53.3,16.9,113,24.7,169.8c9,65.8,41.2,138.7,103.2,156c64.4,18.1,123.3-31.2,157.8-82.5c19.7-29.2,36.6-61.5,58-90.3
		c16.2-21.8,35-41.5,59.5-56.8c13.7-8.5,28.7-15.2,44.2-20.9c24.6-8.9,50.9-13.1,76-20c9.4-2.6,18.8-6.9,25.7-14.3
		c8-8.7,10.3-20.5,12.2-31.3c5.4-29.5,10.6-59.3,17.7-88.2c12-48.7,30.9-94.9,55.4-127.5c-13.2-34.2-23.7-69.2-31.3-104.2
		c-2-9.3-4.2-19.8,0.1-30.3c2-5,5.4-9.3,8.9-13.1c18.8-20.3,42.5-28,64.6-33.8c22.1-5.7,46.3-9.6,71-23.1"/>
	<path class="st18" d="M-244.5,574.5C-145.9,537-65.1,467.5,16.4,403c10.9-8.6,22.1-17.1,32.5-24c7.5-5,14.3-9.3,21.1-13.8
		c25.9-17,51.6-34.5,77.5-51.6c36.6-24.4,75.5-47,119.3-76.5c30.6-20.7,60.9-44.8,92.4-65.9c31.5-21.2,66.5-38.1,100.8-49
		c51.3-16.4,111.8-26.1,155,5.9c2.7,2,5.2,4.1,7.7,6.4c31,28,41,71.8,59.4,109.4c18.3,37.6,57,74,95.7,63.1
		c35.5-10,56.8-55.7,94.1-49.1c12.3,2.2,22.8,10.2,32.3,18.5C935.3,303.1,964,338.8,963,378c-0.5,19.5-8,36.4-19.2,50.9
		c-14.9,19.1-36.7,33.8-57.9,45c-17.4,9.2-36,17.8-52.8,28.5c-19.1,12.1-35.9,26.7-46.1,47c-20.7,41.6-5.2,95.5,25.9,134.2
		c30.9,38.7,74.9,65.9,117.1,93.7c25.4,16.7,51.1,34.5,72.7,56.4c14.4,14.6,26.8,31,36.3,49.4c4.3,8.4,8,17.1,11.1,25.9
		c19.3,55.2,17,117.1,24.9,175.9c9.1,68.2,42.7,143.8,107.7,160.7c67.6,17.6,129.2-36,164.7-91.6c20.3-31.7,37.5-66.6,59.5-97.7
		c16.6-23.5,35.9-44.8,61.2-61.2c14.2-9.1,29.6-16.3,45.7-22.1c25.4-9.3,52.7-13.8,78.9-20.2c9.1-2.2,18.4-5.8,25-13
		c7.6-8.3,9.3-19.9,10.6-30.4c3.6-28.7,7.1-57.7,12.3-86c8.7-47.7,23.4-93.4,43.9-128.8c-8.7-32-14.8-64.6-18-96.8
		c-0.9-8.5-1.8-18,2.2-27.5c1.9-4.5,4.7-8.5,7.8-12c16.1-19.1,36.2-28.6,55.3-36.3c19.2-7.8,40.3-13.9,62.1-26.9"/>
	<path class="st19" d="M-241.6,583.1C-144.1,545.7-63.7,478.5,15.7,412c10.6-8.9,21.4-17.7,31.6-25.5c7.3-5.6,14.2-10.8,21.1-16.1
		c26.2-20.3,52.1-41,78.3-61.4c37-29,75.7-56.6,118.3-87.7c29.8-21.8,59.7-45.4,90.9-66.3c31.2-20.9,65.3-38.1,99.4-50.3
		c52.7-18.9,116.1-29.6,161,3c2.8,2,5.4,4.2,8,6.5c32.1,28.7,42.2,74,60.9,112.8c18.7,38.8,58.9,76.4,99.1,64.1
		c36.8-11.3,58.7-60.3,97.4-54c12.8,2.1,23.7,10.4,33.6,18.9c32,27.6,61.6,64.8,59.7,105.9c-0.9,20.5-9.2,38.3-21.5,53.5
		c-16.3,20.2-39.8,35.9-62.8,47.9c-18.8,9.9-38.8,19.3-57,30.7c-20.7,13-38.8,28.7-50,50.4c-22.8,44.4-7.5,101.7,24.3,142.9
		c31.7,41.2,77.1,70.1,120.6,99.7c26.2,17.7,52.5,36.6,74.8,59.4c14.8,15.2,27.7,32.1,37.5,51.1c4.5,8.7,8.3,17.6,11.4,26.7
		c19.9,57.1,17.1,121.2,25,182c9.1,70.5,44.1,149,112.2,165.5c70.7,17.2,135-40.8,171.6-100.7c20.8-34.1,38.5-71.7,61-105
		c17-25.3,36.8-48.1,62.9-65.6c14.6-9.7,30.5-17.3,47.1-23.4c26.3-9.6,54.4-14.5,81.8-20.4c8.8-1.9,18-4.8,24.2-11.6
		c7.3-7.9,8.2-19.3,8.9-29.6c1.7-27.9,3.6-56,6.9-83.7c5.5-46.6,16-92,32.4-130.1c-4.2-29.8-5.8-59.9-4.7-89.4
		c0.3-7.8,0.6-16.2,4.2-24.6c1.7-4,4.1-7.6,6.6-10.9c13.4-17.9,29.8-29.1,46.1-38.9c16.3-9.8,34.3-18.1,53.2-30.6"/>
	<path class="st20" d="M-238.7,591.7C-142.3,554.4-62.2,489.5,14.9,421c10.3-9.1,20.6-18.3,30.7-27.1c7.2-6.3,14.2-12.4,21.1-18.5
		c26.5-23.5,52.7-47.5,79.1-71.2c37.4-33.6,75.9-66.2,117.2-99c29-23,58.5-46.1,89.4-66.7c30.9-20.6,64-38.2,98.1-51.6
		c54-21.4,120.4-33,167,0.1c2.9,2,5.6,4.2,8.3,6.6c33.3,29.3,43.3,76.2,62.5,116.2c19.1,40.1,60.9,78.8,102.5,65
		c38.2-12.6,60.6-65,100.7-59c13.3,2,24.6,10.6,34.8,19.4c33,28.5,63.5,67.1,60.8,110.1c-1.3,21.4-10.5,40.1-23.9,56.1
		c-17.7,21.3-43,38-67.7,50.9c-20.2,10.6-41.7,20.7-61.1,33c-22.2,14-41.8,30.7-54,53.7c-25,47.2-9.8,108,22.6,151.6
		c32.4,43.7,79.3,74.4,124.2,105.7c26.9,18.8,54,38.8,76.8,62.4c15.3,15.8,28.6,33.2,38.7,52.8c4.7,9,8.5,18.2,11.8,27.6
		c20.6,58.9,17.3,125.3,25.2,188.2c9.2,72.9,45.5,154.2,116.7,170.2c73.9,16.7,140.9-45.6,178.5-109.8
		c21.4-36.6,39.5-76.7,62.5-112.4c17.4-27,37.8-51.4,64.6-69.9c15-10.3,31.4-18.3,48.6-24.6c27.1-10,56.2-15.4,84.7-20.6
		c8.5-1.6,17.6-3.8,23.5-10.3c6.9-7.6,7.2-18.7,7.2-28.7c-0.1-27.1,0.1-54.4,1.4-81.4c2.3-45.6,8.5-90.5,20.9-131.4
		c0.3-27.6,3.1-55.3,8.6-82.1c1.4-7.1,3-14.5,6.3-21.7c1.6-3.5,3.5-6.7,5.5-9.9c10.7-16.7,23.5-29.7,36.9-41.5
		c13.4-11.8,28.3-22.3,44.3-34.3"/>
	<path class="st21" d="M-235.9,600.2C34.6,495.1,179.4,184.4,445.7,69.1c58.7-25.4,133.3-38,181.6,4c34.5,30,44.5,78.4,64,119.6
		s62.8,81.2,105.8,66c39.5-13.9,62.5-69.6,104-63.9c13.8,1.9,25.5,10.8,36,19.8c34.1,29.4,65.4,69.4,61.9,114.3
		c-4.1,52-52.5,88.4-98.8,112.6c-46.3,24.2-98.4,46.5-123.3,92.4c-27.1,50-12.1,114.2,21,160.3c33.2,46.2,81.6,78.6,127.7,111.8
		c46.2,33.1,92.6,69.6,118.8,120.1c35,67.3,28.3,147.5,37.6,222.8c9.2,75.3,47,159.3,121.2,175c77,16.3,146.7-50.4,185.4-118.9
		c38.7-68.5,66.2-148.5,130.4-194.1c39.9-28.3,89.2-39.4,137.6-46.7c8.2-1.2,17.2-2.8,22.8-8.9c6.5-7.2,6.2-18.1,5.5-27.8
		c-5-70.7-7.9-142.3,5.4-211.8c13.3-69.6,44.2-137.8,97.6-184.4"/>
</g>
</svg>
